<svg width="715" height="195" viewBox="0 0 715 195" xmlns="http://www.w3.org/2000/svg"><title>Eva</title><desc>Empowering you to own your health</desc><g fill="#5C2933"><path d="M197.16 114.76c-11.45 33.94-41.426 58.25-77 62.44C96 180.06 70 173.45 47.58 154.72 19.1 127.77 10.13 90 21.65 55.72a8.52 8.52 0 0 0 .35-3.57 8.37 8.37 0 0 0-16.22-1.77c-19.255 57.242 11.538 119.255 68.78 138.51 57.242 19.255 119.255-11.538 138.51-68.78l-15.91-5.35z"/><path d="M63.71 158.38a86.15 86.15 0 0 0 47.88 13.13 88 88 0 0 0 17.65-2.25l-3.8-16.33c-37.674 8.748-75.307-14.7-84.055-52.375-8.748-37.674 14.7-75.307 52.375-84.055A8.37 8.37 0 0 0 91.48 0 9.3 9.3 0 0 0 90 .18h-.31C55.539 8.2 29.573 35.99 23.888 70.607c-5.685 34.617 10.03 69.252 39.822 87.773z"/><path d="M59.56 125.08l13.23-10.3c-19.61-25.19-9.51-64.22 25-74.59 19.43-4.53 38 2.28 49.28 16.79a8.37 8.37 0 0 0 13.2-10.28 63.83 63.83 0 1 0-100.74 78.4l.03-.02z"/><path d="M138.39 108.59a8.36 8.36 0 0 0 7.12-4.35c0-.06.06-.13.1-.19.04-.06 0-.11.07-.17C153 89.61 151.6 72.43 141 58.63 120 34.79 85.09 41 72.07 65.87l14.86 7.76c7.75-14.83 28.56-18.5 41-4.31a25 25 0 0 1 2.72 27.17 8.36 8.36 0 0 0 7.71 12.1h.03z"/><path d="M100 103l.69.31c9.702 4.102 20.92-.093 25.548-9.556 4.63-9.462 1.056-20.893-8.138-26.034l-7.76 14.86a3.09 3.09 0 1 1-2.87 5.47 8.37 8.37 0 0 0-7.76 14.83l.29.12zm342.7 62.38c74.61 0 126.9-60.73 126.9-136.16h-27.23c0 50.65-28 93.13-72.44 105.39V29.22H442.7v136.16zM687.39 29.22v13.62c-23.684-17.635-56.042-17.97-80.085-.83-24.044 17.141-34.278 47.84-25.329 75.98 8.95 28.139 35.036 47.287 64.564 47.39a66.66 66.66 0 0 0 40.85-13.89v13.89h27.23V29.22h-27.23zm-40.85 108.93c-22.525-.149-40.679-18.503-40.58-41.029.1-22.525 18.414-40.72 40.94-40.67 22.525.05 40.76 18.323 40.76 40.849a40.73 40.73 0 0 1-41.12 40.85zM312.11 84c5.72-15.8 20.69-27.5 38.39-27.5A41.3 41.3 0 0 1 389.17 84h-77.06zM282.7 97.3c-.088 31.02 20.83 58.168 50.847 65.993 30.018 7.825 61.526-5.657 76.593-32.773l-26.14-9.8a40.71 40.71 0 0 1-73.25-15h107.56c.27-2.72.54-5.72.54-8.44 0-37.58-31-68.08-68.35-68.08a67.87 67.87 0 0 0-67.8 68.1z"/></g></svg>